<svg xmlns="http://www.w3.org/2000/svg" width="64" height="64" fill="none"><path fill="#000" d="M57.016 3.41C50.306 11.503 41.406 15.987 32 15.987S13.693 11.536 6.984 3.41c-.876-1.08-2.495-1.214-3.573-.338-1.08.877-1.214 2.495-.338 3.574a42 42 0 0 0 6.71 6.507L3.444 18.21a2.522 2.522 0 0 0 3.136 3.945l7.585-6.069c.439.236.843.506 1.282.742l-5.8 8.698a2.516 2.516 0 0 0 .709 3.506c1.18.776 2.73.472 3.506-.708l6.27-9.372c.709.27 1.45.438 2.192.64l-2.866 10.013a2.56 2.56 0 0 0 1.754 3.136c1.28.37 2.73-.371 3.135-1.72l2.933-10.316c.742.101 1.483.168 2.191.202V32A2.547 2.547 0 0 0 32 34.529 2.547 2.547 0 0 0 34.529 32V20.908c.741-.067 1.483-.101 2.191-.202l2.933 10.316c.405 1.383 1.82 2.124 3.136 1.72a2.5 2.5 0 0 0 1.719-3.136l-2.866-10.013c.742-.202 1.45-.404 2.192-.64l6.27 9.406a2.54 2.54 0 0 0 3.507.708c1.146-.776 1.483-2.36.708-3.506l-5.8-8.699c.44-.236.844-.471 1.282-.741l7.586 6.068a2.49 2.49 0 0 0 3.54-.404c.876-1.08.708-2.697-.405-3.54l-6.338-5.057c2.394-1.855 4.652-4.046 6.709-6.507a2.556 2.556 0 0 0-.337-3.574 2.556 2.556 0 0 0-3.574.337z"/><path fill="#000" d="M60.927 33.618a2.556 2.556 0 0 0-.337-3.573 2.556 2.556 0 0 0-3.574.337C50.306 38.473 41.406 42.957 32 42.957s-18.307-4.45-25.016-12.575c-.876-1.08-2.495-1.214-3.573-.337-1.08.876-1.214 2.494-.338 3.573a42 42 0 0 0 6.71 6.507l-6.339 5.057a2.522 2.522 0 0 0 3.136 3.945l7.585-6.069c.439.236.843.506 1.282.742l-5.8 8.698a2.516 2.516 0 0 0 .709 3.506c1.18.776 2.73.472 3.506-.708l6.27-9.372c.709.27 1.45.438 2.192.64l-2.866 10.014a2.56 2.56 0 0 0 1.754 3.135c1.28.37 2.73-.371 3.135-1.72l2.933-10.316c.742.101 1.483.169 2.191.202v11.092A2.547 2.547 0 0 0 32 61.5a2.547 2.547 0 0 0 2.529-2.529V47.88c.741-.067 1.483-.1 2.191-.202l2.933 10.316c.405 1.383 1.82 2.124 3.136 1.72a2.5 2.5 0 0 0 1.719-3.136l-2.866-10.013c.742-.202 1.45-.404 2.192-.64l6.27 9.406a2.54 2.54 0 0 0 3.507.708c1.146-.775 1.483-2.36.708-3.506l-5.8-8.698a25 25 0 0 0 1.282-.742l7.586 6.068a2.49 2.49 0 0 0 3.54-.404c.876-1.079.708-2.697-.405-3.54l-6.338-5.057c2.394-1.855 4.652-4.046 6.709-6.507z"/></svg>