<svg xmlns="http://www.w3.org/2000/svg" width="64" height="64" fill="none" viewBox="0 0 64 64"><path fill="#000" d="M22 13.273c.62 0 1.122-.57 1.122-1.273S22.62 10.727 22 10.727s-1.122.57-1.122 1.273.502 1.273 1.122 1.273M13.827 31.755l-4.813-13.7A9.3 9.3 0 0 0 7 23.838c0 1.987.32 3.96.948 5.846a1 1 0 0 1-.053.763l-3.689 7.377a1.95 1.95 0 0 0 1.271 2.764l1.765.442a1 1 0 0 1 .741.79l1.341 7.38a3.447 3.447 0 0 0 3.844 2.77l6.661-.951 4.971-1 .392 1.96-3.632.728A12.85 12.85 0 0 1 23 58.605V62h15.847l-.472-3.3a46.5 46.5 0 0 1-24.548-26.945"/><path fill="#000" d="M42.544 31.11a1 1 0 0 1 1.321.389l6.961 12.023a15.33 15.33 0 0 0 7.762 6.6 21.85 21.85 0 0 1-4.452-7.934l-.477-1.525A168 168 0 0 1 49.3 23.6 25.7 25.7 0 0 0 24.169 3 21.193 21.193 0 0 0 3 24.169a9.23 9.23 0 0 0 2.586 6.423l.337-.674A20.5 20.5 0 0 1 5 23.838a11.3 11.3 0 0 1 4.077-8.7l2.282-1.9 1.282 1.536-2.06 1.716 5.133 14.608a44.735 44.735 0 0 0 41.313 29.9l-4.793-2.018a23.2 23.2 0 0 1-9.156-6.964A49.9 49.9 0 0 1 22.289 29.97L20.1 25.435l1.8-.87 2.19 4.535a48.2 48.2 0 0 0 12.219 15.81 48 48 0 0 1-4.58-12.185l-1.7-7.5 1.952-.444 1.7 7.5a46.1 46.1 0 0 0 6.948 15.892 47.9 47.9 0 0 0 16.448 7.007A32.5 32.5 0 0 1 46.5 42.214l-4.412-9.8a1 1 0 0 1 .456-1.304M26 13a2.665 2.665 0 0 0-2.607 2.138L22.98 17.2a1 1 0 0 1-1.96 0l-.413-2.058A2.665 2.665 0 0 0 18 13a1 1 0 0 1 0-2 2.665 2.665 0 0 0 2.607-2.138L21.02 6.8a1 1 0 0 1 1.96 0l.413 2.058A2.665 2.665 0 0 0 26 11a1 1 0 0 1 0 2m32.412 11.058L58 22l-.412 2.058A3.66 3.66 0 0 1 54 27a3.66 3.66 0 0 1 3.588 2.942L58 32l.412-2.058A3.66 3.66 0 0 1 62 27a3.66 3.66 0 0 1-3.588-2.942M50.588 9.942 51 12l.412-2.058A3.66 3.66 0 0 1 55 7a3.66 3.66 0 0 1-3.588-2.942L51 2l-.412 2.058A3.66 3.66 0 0 1 47 7a3.66 3.66 0 0 1 3.588 2.942"/></svg>